<svg width="35" height="12" viewBox="0 0 35 12" fill="none" xmlns="http://www.w3.org/2000/svg">
<path d="M7.19141 4.10156V5.26367H2.73438V8.2168H7.7793V9.37891H1.50391V0.21875H7.7793V1.38086H2.73438V4.10156H7.19141ZM13.7402 0C14.7702 0 15.6406 0.209635 16.3516 0.628906C17.0716 1.04818 17.6185 1.61784 17.9922 2.33789C18.375 3.04883 18.5664 3.85547 18.5664 4.75781C18.5664 5.66016 18.375 6.47135 17.9922 7.19141C17.6185 7.90234 17.0716 8.46745 16.3516 8.88672C15.6406 9.30599 14.7702 9.51562 13.7402 9.51562C13.1113 9.51562 12.5326 9.48372 12.0039 9.41992C11.4753 9.35612 10.9329 9.27409 10.377 9.17383V0.341797C10.9329 0.241536 11.4753 0.159505 12.0039 0.0957031C12.5326 0.031901 13.1113 0 13.7402 0ZM13.7402 1.16211C13.4121 1.16211 13.0612 1.17578 12.6875 1.20312C12.3138 1.22135 11.9538 1.25326 11.6074 1.29883V8.2168C11.9538 8.25326 12.3138 8.28516 12.6875 8.3125C13.0612 8.33984 13.4121 8.35352 13.7402 8.35352C14.4785 8.35352 15.112 8.19857 15.6406 7.88867C16.1784 7.56966 16.5885 7.14128 16.8711 6.60352C17.1628 6.05664 17.3086 5.44141 17.3086 4.75781C17.3086 4.07422 17.1628 3.46354 16.8711 2.92578C16.5885 2.37891 16.1784 1.95052 15.6406 1.64062C15.112 1.32161 14.4785 1.16211 13.7402 1.16211ZM25.0742 8.2168V9.37891H20.7539V8.2168H22.2988V1.38086H20.7539V0.21875H25.0742V1.38086H23.5293V8.2168H25.0742ZM34.5352 0.21875V1.38086H31.377V9.33789H30.1465V1.38086H26.9883V0.21875H34.5352Z" fill="#FF7622"/>
<path d="M0 11.0879H34.9316V11.7715H0V11.0879Z" fill="#FF7622"/>
</svg>
