<svg width="375" height="295" viewBox="0 0 375 295" fill="none" xmlns="http://www.w3.org/2000/svg">
<mask id="mask0_224_138" style="mask-type:alpha" maskUnits="userSpaceOnUse" x="0" y="0" width="375" height="295">
<rect width="375" height="295" fill="#C4C4C4"/>
</mask>
<g mask="url(#mask0_224_138)">
<path d="M378.156 -10.5483V420.451C378.166 425.334 376.822 430.125 374.273 434.29C371.725 438.456 368.072 441.833 363.719 444.047C360.067 445.919 356.02 446.889 351.917 446.875H226.612C226.576 446.931 226.524 446.974 226.463 447L225.742 446.875H22.9618C8.4758 446.875 -3.27714 435.065 -3.27714 420.451V-10.5483C-3.28265 -11.9146 -3.17452 -13.279 -2.95386 -14.6274C-2.58518 -17.088 -1.88351 -19.487 -0.868154 -21.7583V-21.7834C-0.105023 -23.441 0.809891 -25.0244 1.86489 -26.5134C2.21251 -27.0155 2.58562 -27.4891 2.985 -27.9642C3.51278 -28.6668 4.10318 -29.3202 4.74896 -29.9162C5.04714 -30.2167 5.37042 -30.5416 5.69332 -30.8432C6.6734 -31.7281 7.71091 -32.5472 8.79909 -33.2951C10.6342 -34.5359 12.6113 -35.5524 14.6881 -36.3229C17.7042 -37.4312 20.8922 -37.9989 24.1055 -38H350.774C354.574 -38.0068 358.332 -37.2137 361.806 -35.6724C362.278 -35.4476 362.75 -35.2221 363.222 -34.9714C365.359 -33.8919 367.34 -32.5285 369.111 -30.9181C369.458 -30.5925 369.806 -30.2677 370.13 -29.9417C370.817 -29.2956 371.449 -28.5926 372.018 -27.8402C372.391 -27.3651 372.764 -26.8892 373.086 -26.4138C373.765 -25.4499 374.388 -24.4473 374.95 -23.4111C375.5 -22.3551 375.99 -21.2691 376.418 -20.1581C377.061 -18.4589 377.527 -16.6978 377.808 -14.9028C377.883 -14.4278 377.957 -13.9272 378.007 -13.427C378.107 -12.4707 378.156 -11.5098 378.156 -10.5483Z" fill="#D0D9E1"/>
<path d="M301.976 218.854L261.068 236.342C260.745 236.48 260.399 236.552 260.048 236.555C259.697 236.557 259.349 236.491 259.024 236.358C258.699 236.226 258.403 236.031 258.154 235.784C257.905 235.537 257.707 235.243 257.572 234.919L255.563 230.152C255.286 229.497 255.279 228.76 255.544 228.1C255.809 227.44 256.323 226.912 256.976 226.63L297.883 209.143C298.206 209.005 298.553 208.933 298.904 208.93C299.255 208.927 299.603 208.994 299.928 209.126C300.253 209.259 300.548 209.454 300.798 209.701C301.047 209.948 301.245 210.242 301.38 210.566L303.388 215.333C303.665 215.988 303.672 216.725 303.408 217.385C303.143 218.045 302.628 218.573 301.976 218.854Z" fill="#D0D9E1"/>
<path d="M322.058 227.689L281.151 245.176C280.828 245.314 280.481 245.386 280.13 245.389C279.779 245.392 279.431 245.325 279.106 245.193C278.781 245.061 278.486 244.865 278.237 244.618C277.987 244.371 277.789 244.077 277.654 243.754L275.646 238.986C275.369 238.332 275.362 237.594 275.626 236.934C275.891 236.275 276.406 235.746 277.058 235.465L317.966 217.977C318.288 217.84 318.635 217.768 318.986 217.765C319.337 217.762 319.685 217.829 320.01 217.961C320.335 218.093 320.631 218.288 320.88 218.535C321.13 218.782 321.327 219.076 321.463 219.4L323.471 224.167C323.748 224.822 323.755 225.56 323.49 226.219C323.226 226.879 322.711 227.407 322.058 227.689Z" fill="#D0D9E1"/>
<path d="M341.989 237.139L301.082 254.627C300.759 254.764 300.412 254.836 300.061 254.839C299.71 254.842 299.362 254.775 299.037 254.643C298.712 254.511 298.417 254.315 298.168 254.068C297.918 253.821 297.72 253.528 297.585 253.204L295.577 248.436C295.3 247.782 295.293 247.044 295.558 246.384C295.822 245.725 296.337 245.196 296.99 244.915L337.897 227.428C338.22 227.29 338.567 227.218 338.918 227.215C339.268 227.212 339.616 227.279 339.941 227.411C340.266 227.543 340.562 227.738 340.811 227.985C341.061 228.232 341.258 228.526 341.394 228.85L343.402 233.618C343.679 234.272 343.686 235.01 343.421 235.67C343.157 236.329 342.642 236.858 341.989 237.139Z" fill="#D0D9E1"/>
<path d="M55.6679 7.26308L11.7909 14.3573C11.444 14.4124 11.0897 14.3984 10.7482 14.3163C10.4067 14.2342 10.0848 14.0855 9.80095 13.8787C9.51708 13.6719 9.27683 13.4111 9.09396 13.1112C8.91109 12.8114 8.7892 12.4784 8.7353 12.1313L7.91994 7.01781C7.80613 6.31672 7.97488 5.59915 8.38922 5.02227C8.80356 4.44538 9.42969 4.05629 10.1304 3.94024L54.0075 -3.15397C54.3543 -3.20907 54.7086 -3.19515 55.05 -3.11304C55.3915 -3.03094 55.7134 -2.88226 55.9973 -2.6755C56.2811 -2.46874 56.5214 -2.208 56.7043 -1.90819C56.8872 -1.60839 57.0091 -1.27545 57.063 -0.928432L57.8784 4.18551C57.9923 4.88661 57.8236 5.60424 57.4092 6.18115C56.9949 6.75805 56.3687 7.14713 55.6679 7.26308Z" fill="#D0D9E1"/>
<path d="M224.194 215.524L202.889 224.631C202.647 224.734 202.386 224.789 202.123 224.791C201.86 224.793 201.599 224.743 201.355 224.643C201.111 224.544 200.889 224.398 200.702 224.212C200.515 224.027 200.367 223.807 200.266 223.564L197.736 217.561C197.528 217.07 197.523 216.517 197.721 216.022C197.92 215.527 198.306 215.131 198.795 214.919L220.1 205.812C220.342 205.709 220.603 205.655 220.866 205.652C221.129 205.65 221.39 205.7 221.634 205.8C221.878 205.899 222.1 206.045 222.287 206.231C222.474 206.416 222.622 206.636 222.724 206.879L225.253 212.882C225.461 213.373 225.467 213.926 225.268 214.421C225.07 214.916 224.683 215.312 224.194 215.524Z" fill="#D0D9E1"/>
<path d="M172.939 238L163.895 216.544C163.687 216.053 163.682 215.5 163.881 215.005C164.079 214.51 164.466 214.114 164.955 213.902L170.916 211.353C171.158 211.25 171.418 211.196 171.681 211.194C171.945 211.192 172.206 211.242 172.45 211.341C172.693 211.44 172.915 211.587 173.102 211.772C173.289 211.957 173.438 212.178 173.539 212.421L182.582 233.876C182.79 234.367 182.795 234.921 182.597 235.415C182.398 235.91 182.012 236.307 181.523 236.518L175.562 239.067C175.32 239.17 175.06 239.225 174.796 239.227C174.533 239.229 174.272 239.179 174.028 239.079C173.784 238.98 173.563 238.834 173.376 238.648C173.189 238.463 173.04 238.243 172.939 238Z" fill="#D0D9E1"/>
<path d="M29.4523 256.948L16.0883 237.917C15.782 237.481 15.6604 236.941 15.75 236.415C15.8396 235.889 16.1332 235.419 16.5669 235.109L21.8534 231.344C22.0677 231.191 22.3101 231.082 22.5667 231.024C22.8233 230.965 23.0889 230.958 23.3482 231.003C23.6075 231.048 23.8554 231.144 24.0775 231.285C24.2995 231.426 24.4914 231.61 24.642 231.826L38.006 250.856C38.3125 251.293 38.4342 251.833 38.3447 252.359C38.2551 252.885 37.9616 253.354 37.5278 253.665L32.241 257.43C32.0267 257.582 31.7842 257.691 31.5277 257.749C31.2711 257.808 31.0055 257.815 30.7462 257.77C30.4869 257.725 30.2391 257.63 30.017 257.489C29.7949 257.347 29.603 257.164 29.4523 256.948Z" fill="#D0D9E1"/>
<path d="M186.141 59.0451L166.097 47.3909C165.636 47.1216 165.301 46.6813 165.164 46.1658C165.026 45.6503 165.098 45.1014 165.363 44.6386L168.601 38.9912C168.731 38.7625 168.905 38.5618 169.113 38.4008C169.322 38.2397 169.559 38.1215 169.814 38.0529C170.068 37.9843 170.333 37.9668 170.594 38.0013C170.855 38.0358 171.106 38.1217 171.334 38.2539L191.38 49.9081C191.84 50.1774 192.176 50.6177 192.313 51.1332C192.451 51.6487 192.379 52.1976 192.113 52.6605L188.876 58.3074C188.746 58.5364 188.571 58.7373 188.363 58.8985C188.155 59.0597 187.917 59.178 187.662 59.2466C187.408 59.3152 187.143 59.3327 186.881 59.2981C186.62 59.2636 186.369 59.1776 186.141 59.0451Z" fill="#D0D9E1"/>
<path d="M157.452 44.9608L137.408 33.3066C136.947 33.0373 136.612 32.597 136.474 32.0815C136.337 31.566 136.409 31.017 136.674 30.5542L139.911 24.9073C140.042 24.6786 140.216 24.4779 140.424 24.3169C140.632 24.1558 140.87 24.0376 141.124 23.969C141.378 23.9004 141.644 23.8829 141.904 23.9173C142.165 23.9517 142.417 24.0374 142.645 24.1695L162.689 35.8238C163.149 36.0931 163.484 36.5334 163.622 37.0489C163.759 37.5644 163.688 38.1133 163.422 38.5762L160.185 44.2234C160.055 44.4522 159.88 44.6528 159.672 44.8138C159.464 44.9749 159.226 45.0931 158.972 45.1616C158.718 45.2302 158.453 45.2477 158.192 45.2132C157.931 45.1788 157.679 45.093 157.452 44.9608Z" fill="#D0D9E1"/>
<path d="M99.055 -0.828512L90.2139 -22.3687C90.0107 -22.8617 90.0107 -23.4151 90.2139 -23.9081C90.4171 -24.4012 90.8069 -24.7939 91.2985 -25.0006L97.2822 -27.4918C97.5254 -27.5927 97.7861 -27.6444 98.0494 -27.644C98.3127 -27.6437 98.5733 -27.5912 98.8162 -27.4897C99.0591 -27.3881 99.2795 -27.2396 99.4647 -27.0525C99.65 -26.8654 99.7964 -26.6435 99.8955 -26.3995L108.738 -4.85939C108.941 -4.36642 108.941 -3.81308 108.738 -3.32011C108.535 -2.82714 108.145 -2.43449 107.654 -2.22785L101.67 0.263416C101.427 0.364508 101.166 0.416452 100.902 0.416227C100.639 0.416 100.378 0.363605 100.135 0.262096C99.8919 0.160587 99.6713 0.0119686 99.486 -0.175213C99.3006 -0.362394 99.1542 -0.584442 99.055 -0.828512Z" fill="#D0D9E1"/>
<path d="M13.1869 259.311L-0.177019 240.28C-0.483535 239.843 -0.605256 239.303 -0.515711 238.777C-0.426166 238.252 -0.132594 237.782 0.301151 237.472L5.58802 233.707C5.80233 233.554 6.04477 233.445 6.30132 233.387C6.55788 233.328 6.82347 233.321 7.08277 233.366C7.34206 233.411 7.58991 233.506 7.812 233.648C8.03409 233.789 8.22601 233.972 8.37669 234.188L21.7407 253.219C22.0472 253.656 22.1689 254.196 22.0793 254.722C21.9898 255.247 21.6962 255.717 21.2625 256.027L15.9756 259.792C15.7613 259.945 15.5189 260.054 15.2623 260.112C15.0058 260.171 14.7402 260.178 14.4809 260.133C14.2216 260.088 13.9737 259.992 13.7516 259.851C13.5296 259.71 13.3376 259.526 13.1869 259.311Z" fill="#D0D9E1"/>
<path d="M46.5994 231.275L37.878 210.585C37.6273 209.992 37.621 209.325 37.8605 208.728C38.1 208.131 38.5659 207.653 39.1565 207.398L48.3178 203.482C48.6099 203.358 48.9238 203.292 49.2413 203.29C49.5588 203.287 49.8737 203.347 50.1678 203.467C50.4619 203.587 50.7295 203.763 50.955 203.987C51.1805 204.21 51.3596 204.476 51.4819 204.769L60.2032 225.46C60.4538 226.052 60.4601 226.72 60.2206 227.316C59.9811 227.913 59.5153 228.391 58.9247 228.646L49.7635 232.563C49.4713 232.687 49.1574 232.752 48.8399 232.755C48.5224 232.757 48.2075 232.697 47.9135 232.577C47.6194 232.458 47.3519 232.281 47.1263 232.058C46.9008 231.834 46.7217 231.568 46.5994 231.275Z" fill="#D0D9E1"/>
<path d="M80.9203 51.8722L68.0333 33.5201C67.6637 32.9933 67.517 32.3419 67.625 31.7075C67.7331 31.0731 68.0872 30.5071 68.6104 30.1324L76.7365 24.3456C76.9949 24.1613 77.2872 24.0301 77.5967 23.9594C77.9061 23.8888 78.2264 23.8802 78.5392 23.934C78.8519 23.9879 79.1509 24.1032 79.4189 24.2733C79.6868 24.4434 79.9184 24.6649 80.1003 24.925L92.9869 43.2774C93.3567 43.8041 93.5035 44.4555 93.3954 45.0899C93.2874 45.7242 92.9331 46.2903 92.4098 46.6648L84.2841 52.4519C84.0256 52.6361 83.7332 52.7673 83.4238 52.8379C83.1144 52.9085 82.7941 52.9171 82.4813 52.8632C82.1686 52.8092 81.8696 52.694 81.6017 52.5239C81.3337 52.3538 81.1021 52.1323 80.9203 51.8722Z" fill="#D0D9E1"/>
<path d="M244.043 185.961L211.058 200.062C210.755 200.191 210.428 200.259 210.098 200.262C209.768 200.265 209.441 200.202 209.135 200.078C208.829 199.953 208.551 199.77 208.317 199.537C208.082 199.305 207.896 199.028 207.769 198.724L205.636 193.664C205.375 193.048 205.369 192.354 205.618 191.734C205.867 191.113 206.351 190.616 206.964 190.351L239.949 176.251C240.253 176.121 240.579 176.054 240.91 176.051C241.24 176.048 241.567 176.111 241.873 176.235C242.178 176.36 242.457 176.543 242.691 176.776C242.925 177.008 243.112 177.284 243.239 177.589L245.372 182.649C245.632 183.265 245.639 183.958 245.39 184.579C245.141 185.199 244.657 185.696 244.043 185.961Z" fill="#D0D9E1"/>
<path d="M132.332 61.5586L103.076 82.3946C102.807 82.586 102.503 82.7222 102.181 82.7955C101.86 82.8687 101.527 82.8775 101.202 82.8214C100.877 82.7652 100.566 82.6452 100.288 82.4683C100.009 82.2913 99.7685 82.061 99.5795 81.7906L96.4274 77.3016C96.0431 76.7541 95.8905 76.077 96.0028 75.4176C96.1151 74.7582 96.4831 74.1697 97.0269 73.7802L126.284 52.9445C126.553 52.753 126.857 52.6167 127.179 52.5434C127.5 52.4701 127.833 52.4612 128.158 52.5174C128.484 52.5735 128.794 52.6935 129.073 52.8705C129.351 53.0474 129.592 53.2778 129.781 53.5482L132.933 58.0375C133.317 58.5852 133.469 59.2624 133.357 59.9218C133.244 60.5812 132.876 61.1694 132.332 61.5586Z" fill="#D0D9E1"/>
<path d="M73.3515 55.3913C73.3515 55.3913 85.8391 59.0992 88.5065 68.7144C91.1739 78.3296 80.1212 85.7865 77.6268 88.9556C75.1325 92.1248 47.1427 89.2751 47.1427 89.2751C47.1427 89.2751 19.5226 76.2586 19.0367 68.7144C18.5508 61.1702 -3.56194 59.9818 22.453 50.8552C48.4679 41.7286 36.1105 36.9665 48.4675 41.7282C60.8246 46.4898 73.3515 55.3913 73.3515 55.3913Z" fill="#D0D9E1"/>
<path d="M327.589 26.899C327.589 26.899 340.076 30.607 342.744 40.2245C345.411 49.842 334.358 57.2966 331.864 60.4638C329.37 63.631 301.38 60.7833 301.38 60.7833C301.38 60.7833 273.76 47.7668 273.274 40.223C272.788 32.6792 250.675 31.49 276.69 22.3633C302.705 13.2367 290.348 8.4747 302.705 13.2367C315.062 17.9988 327.589 26.899 327.589 26.899Z" fill="#D0D9E1"/>
<path d="M101.564 193.827C101.564 193.827 99.3895 200.091 92.5797 201.952C85.7699 203.813 79.9747 198.904 77.5989 197.884C75.2232 196.865 76.1698 183.149 76.1698 183.149C76.1698 183.149 84.4443 169.009 89.8482 168.327C95.2521 167.645 95.2386 156.872 102.823 168.923C110.408 180.973 113.346 174.711 110.408 180.973C107.47 187.236 101.564 193.827 101.564 193.827Z" fill="#D0D9E1"/>
<path d="M-3.27979 120.042C17.6777 112.436 66.5064 102.041 77.751 109.601C88.9957 117.162 132.122 116.708 132.122 116.708L171.604 92.6692C171.604 92.6692 230.853 107.471 230.305 76.8787C229.756 46.286 247.768 -1.91092 270.667 -13.2511C293.566 -24.5913 295.363 -37.989 295.363 -37.989H275.433C275.433 -37.989 264.723 -16.7165 254.747 -14.8262C244.77 -12.9359 215.631 13.778 218.314 28.1417C220.998 42.5055 218.314 67.6717 218.314 67.6717L193.348 75.8466L160.941 70.6605C160.941 70.6605 146.65 89.281 144.724 92.6692C142.798 96.0573 125.713 102.628 115.538 99.2075C105.363 95.7869 75.2339 96.0573 75.2339 96.0573C75.2339 96.0573 41.8205 109.615 35.8859 101.619C29.9513 93.624 13.4066 97.3196 13.4066 97.3196L-3.27902 101.619L-3.27979 120.042Z" fill="#D0D9E1"/>
<path d="M378.155 210.482V237.682C375.943 239.734 372.664 242.411 369.011 243.988C366.23 245.239 363.222 245.789 360.364 244.938C359.146 244.588 357.78 244.763 356.314 245.389C351.817 247.265 346.449 253.146 341.878 259.001C339.367 262.23 337.107 265.483 335.393 268.035C333.38 271.063 332.137 273.114 332.137 273.114C332.137 273.114 308.135 291.482 297.947 294.86C294.22 296.087 290.568 298.964 287.437 302.268C286.716 303.043 286.021 303.819 285.375 304.619C284.654 305.469 283.984 306.346 283.362 307.197C280.182 311.626 278.218 315.88 278.442 317.656C278.914 321.535 278.517 345.082 278.517 345.082L278.367 345.157L274.169 347.384L269.373 349.911L249.445 360.446L234.313 382.016C234.313 382.016 238.537 389.248 244.201 397.255C247.166 401.573 250.377 405.717 253.818 409.667H253.843C255.16 411.143 256.477 412.519 257.769 413.72C263.733 419.226 264.03 433.789 261.919 446.876H244.054C243.353 440.626 242.191 434.437 240.576 428.359C239.656 424.731 238.563 421.127 237.37 417.574C236.401 414.746 235.357 411.944 234.264 409.216C232.599 405.087 230.76 401.084 228.822 397.305C226.093 391.882 222.883 386.715 219.231 381.866C208.571 368.028 222.461 354.316 236.277 345.107C237.643 344.18 239.01 343.33 240.376 342.504C241.693 341.704 242.985 340.928 244.253 340.226C248.353 337.885 252.575 335.763 256.9 333.869L274.268 290.803C274.314 290.776 274.356 290.742 274.393 290.703C274.442 290.678 274.492 290.626 274.566 290.578C274.939 290.278 275.734 289.702 276.827 288.901C277.498 288.376 278.295 287.8 279.213 287.125C281.921 285.173 285.547 282.595 289.599 279.842C300.507 272.536 314.521 264.153 322.075 263.753C329.156 263.378 341.605 252.793 353.63 240.106C356.538 237.055 359.42 233.849 362.203 230.647C368.365 223.543 373.98 216.387 378.155 210.482Z" fill="#D0D9E1"/>
<path d="M280.642 94.8973C251.338 116.032 205.518 116.424 230.305 146.941C255.092 177.459 286.267 211.363 308.685 191.103C331.102 170.843 325.988 173.416 337.929 144.724C349.87 116.031 361.549 92.3561 323.311 84.8452C285.073 77.3343 280.642 94.8973 280.642 94.8973Z" fill="#D0D9E1"/>
<path d="M200.138 278.2C181.49 287.875 152.33 288.054 168.104 302.025C183.878 315.995 203.718 331.516 217.984 322.241C232.25 312.966 228.996 314.144 236.595 301.01C244.195 287.875 251.627 277.036 227.293 273.598C202.959 270.16 200.138 278.2 200.138 278.2Z" fill="#D0D9E1"/>
<path d="M378.15 261.967V288.226L362.385 257.296L359.649 251.92L325.483 184.919L320.045 174.268L296.489 128.066L293.77 122.723L266.344 68.9277L263.608 63.5686L242.321 21.8026L239.552 16.3762L213.227 -35.2525C212.786 -36.0973 212.562 -37.0383 212.576 -37.991H225.221L250.846 12.2762L253.582 17.6362L287.798 84.7538L290.534 90.1137L330.755 169.009L336.194 179.661L378.15 261.967Z" fill="#D0D9E1"/>
<path d="M378.151 145.722V159.047L336.194 179.662L325.484 184.92L245.141 224.417L239.769 227.038L180.078 256.372L174.74 258.993L168.351 262.134L122.307 284.765L110.128 290.746L63.0998 313.863L56.0265 317.339L44.5822 322.951C44.4485 323.018 44.2987 323.085 44.1484 323.152L20.9928 334.543L15.6214 337.181L-0.678018 345.195C-1.48649 345.596 -2.37772 345.804 -3.28052 345.8V333.131L34.9574 314.348L45.9846 308.938L107.76 278.579C107.91 278.495 108.061 278.429 108.211 278.361L157.109 254.337L167.852 249.045L194.528 235.941L199.866 233.32L278.491 194.696L283.83 192.058L320.047 174.266L330.758 169.008L378.151 145.722Z" fill="#D0D9E1"/>
<path d="M185.737 446.875H173.835C175.202 412.744 170.207 385.168 162.43 363.197C161.486 360.494 160.492 357.891 159.449 355.391C143.174 315.404 118.078 296.086 110.126 290.756C108.61 289.73 107.715 289.205 107.615 289.154C106.235 288.384 105.215 287.1 104.777 285.581C104.34 284.063 104.52 282.433 105.279 281.046C105.93 279.851 106.962 278.909 108.211 278.369C109.034 278.025 109.924 277.871 110.814 277.919C111.705 277.966 112.573 278.214 113.355 278.644C116.475 280.478 119.464 282.527 122.3 284.775C130.947 291.457 144.513 303.943 156.937 323.887C157.21 324.337 157.484 324.788 157.782 325.238C159.52 328.116 161.285 331.219 163.025 334.522C171.796 351.162 179.921 373.283 183.698 401.536C184.219 405.39 184.667 409.369 185.015 413.471C185.943 424.58 186.184 435.736 185.737 446.875Z" fill="#D0D9E1"/>
<path d="M378.151 48.6499V54.8828L364.154 60.5108L290.534 90.1138L284.712 92.4487C284.363 92.5952 283.989 92.6696 283.611 92.6673C283.015 92.6699 282.433 92.4913 281.941 92.1552C281.449 91.8191 281.072 91.3414 280.858 90.7855C280.563 90.0494 280.571 89.2265 280.88 88.4963C281.19 87.7662 281.775 87.188 282.509 86.8879L287.798 84.7539L358.883 56.1767L364.437 53.9419L377.049 48.8682C377.398 48.7235 377.773 48.6493 378.151 48.6499Z" fill="#D0D9E1"/>
<path d="M364.504 60.3429C364.391 60.4057 364.274 60.4616 364.154 60.5105C363.814 60.6439 363.452 60.7124 363.087 60.7126C362.548 60.7096 362.021 60.5613 361.56 60.2832C361.099 60.0051 360.721 59.6076 360.467 59.1328L358.884 56.1765L322.583 -11.378L319.73 -16.6869L309.053 -36.5624C308.811 -36.9997 308.685 -37.4916 308.686 -37.9915H315.059L325.252 -19.0067L328.105 -13.6977L364.439 53.9413L365.707 56.2935C366.084 56.9901 366.169 57.8078 365.944 58.5671C365.718 59.3263 365.201 59.965 364.504 60.3429Z" fill="#D0D9E1"/>
<path d="M220.519 342.806C219.977 342.806 219.444 342.657 218.98 342.376C218.516 342.094 218.138 341.691 217.887 341.21L172.005 253.786C171.636 253.084 171.559 252.265 171.792 251.507C172.024 250.749 172.547 250.113 173.245 249.739C173.591 249.555 173.969 249.441 174.359 249.404C174.749 249.367 175.142 249.408 175.516 249.524C175.89 249.64 176.237 249.829 176.537 250.081C176.837 250.332 177.085 250.64 177.265 250.987L223.147 338.411C223.516 339.113 223.593 339.932 223.361 340.69C223.128 341.448 222.606 342.084 221.907 342.459C221.48 342.687 221.003 342.806 220.519 342.806Z" fill="#D0D9E1"/>
<path d="M299.319 333.291C298.784 333.29 298.259 333.146 297.799 332.872C297.339 332.598 296.962 332.204 296.708 331.734L236.982 221.908C236.602 221.212 236.514 220.394 236.735 219.632C236.956 218.871 237.469 218.227 238.162 217.842C238.505 217.654 238.882 217.535 239.271 217.492C239.66 217.45 240.053 217.485 240.429 217.595C240.804 217.706 241.154 217.89 241.458 218.136C241.762 218.383 242.014 218.687 242.2 219.031L301.926 328.857C302.305 329.553 302.394 330.371 302.173 331.132C301.952 331.894 301.439 332.537 300.745 332.922C300.309 333.164 299.818 333.291 299.319 333.291Z" fill="#D0D9E1"/>
<path d="M276.491 291.317C275.797 291.312 275.125 291.066 274.592 290.621C274.058 290.176 273.696 289.559 273.567 288.877C273.437 288.194 273.549 287.488 273.882 286.878C274.216 286.269 274.751 285.794 275.395 285.535L365.478 249.601C365.842 249.457 366.231 249.386 366.622 249.393C367.014 249.399 367.4 249.483 367.759 249.639C368.118 249.796 368.442 250.022 368.714 250.304C368.985 250.586 369.198 250.919 369.34 251.284C369.631 252.022 369.619 252.844 369.306 253.573C368.993 254.301 368.405 254.876 367.67 255.173L277.588 291.107C277.239 291.246 276.867 291.317 276.491 291.317Z" fill="#D0D9E1"/>
<path d="M378.151 359.594V365.626C378.011 365.631 377.871 365.62 377.734 365.592L339.481 360.064V360.049L333.558 359.192L288.932 352.742L283.01 351.885L220.117 342.779L163.03 334.53V334.513L153.338 333.119C152.756 333.031 152.214 332.774 151.777 332.38C151.341 331.987 151.03 331.473 150.882 330.904C150.735 330.335 150.758 329.736 150.948 329.18C151.138 328.623 151.488 328.135 151.953 327.776L156.941 323.895L193.776 295.267L195.761 293.722C196.071 293.483 196.425 293.308 196.803 293.206C197.18 293.105 197.575 293.079 197.963 293.13C198.35 293.182 198.724 293.31 199.062 293.507C199.4 293.703 199.696 293.965 199.933 294.277C200.038 294.412 200.127 294.559 200.2 294.714C200.53 295.335 200.631 296.053 200.485 296.741C200.338 297.43 199.954 298.044 199.399 298.477L196.596 300.661L161.162 328.197L215.147 336.01L222.454 337.068L283.846 345.956L289.785 346.813L334.411 353.263L340.317 354.12L378.151 359.594Z" fill="#D0D9E1"/>
<path d="M369.11 -30.9167L328.112 -13.7006L322.571 -11.3734L253.57 17.6286L247.853 20.0307L247.63 20.106C247.331 20.2304 245.667 20.7564 243.033 21.5819C242.81 21.6572 242.561 21.7321 242.313 21.8074C236.871 23.4837 227.951 26.0611 218.31 28.1384C210.285 29.8896 201.762 31.316 194.382 31.5667C193.562 31.591 192.767 31.6161 191.972 31.6161C190.282 31.6161 188.642 31.5412 187.127 31.3913C186.754 31.3411 186.357 31.2662 186.009 31.216C177.014 29.4644 169.51 17.7781 163.77 4.49164C162.975 2.61475 162.205 0.712833 161.459 -1.21402C155.248 -17.3043 151.595 -33.9677 150.85 -37.3728C150.8 -37.5777 150.775 -37.7877 150.775 -37.9985H156.813C159.223 -26.7874 163.298 -12.5245 168.243 -0.363495C168.343 -0.191132 168.418 -0.00559998 168.466 0.187675C174.156 13.85 180.915 24.7348 187.723 25.4096C196.022 26.2593 207.924 24.3339 218.807 21.8816C226.957 20.0299 234.511 17.8778 239.555 16.3768C242.934 15.3502 245.17 14.6252 245.668 14.4498L246.71 14.025L250.835 12.2733L319.737 -16.6785L325.253 -19.0057L363.221 -34.97C365.358 -33.8905 367.339 -32.5271 369.11 -30.9167Z" fill="#D0D9E1"/>
<path d="M199.874 242.983C199.325 242.983 198.788 242.831 198.32 242.544C197.853 242.257 197.475 241.846 197.226 241.357C163.305 174.942 162.818 129.981 195.737 103.901C204.229 97.1723 208.789 88.9951 209.287 79.5988C210.56 55.6168 185.611 30.7951 185.357 30.5475C184.792 29.9904 184.47 29.2332 184.46 28.44C184.45 27.6469 184.754 26.882 185.304 26.3112C185.576 26.0301 185.901 25.8057 186.26 25.6507C186.619 25.4958 187.005 25.4135 187.395 25.4084C187.786 25.4034 188.174 25.4758 188.537 25.6215C188.9 25.7671 189.23 25.9831 189.509 26.2571C190.618 27.3448 216.633 53.1954 215.229 79.9005C214.64 91.1016 209.319 100.762 199.415 108.609C169.092 132.634 170.106 175.16 202.516 238.617C202.878 239.323 202.946 240.143 202.705 240.898C202.464 241.654 201.935 242.284 201.232 242.651C200.812 242.869 200.346 242.983 199.874 242.983Z" fill="#D0D9E1"/>
<path d="M176.216 179.223C175.63 179.222 175.058 179.049 174.571 178.724C174.083 178.4 173.703 177.939 173.476 177.399C173.167 176.668 173.159 175.845 173.454 175.109C173.749 174.373 174.324 173.783 175.052 173.469L299.463 120.283C299.824 120.129 300.211 120.048 300.602 120.045C300.994 120.042 301.382 120.116 301.745 120.263C302.107 120.411 302.437 120.629 302.715 120.905C302.993 121.18 303.214 121.508 303.364 121.87C303.674 122.6 303.682 123.423 303.387 124.159C303.091 124.895 302.517 125.484 301.789 125.799L177.377 178.985C177.01 179.142 176.615 179.223 176.216 179.223Z" fill="#D0D9E1"/>
<path d="M271.632 66.66L266.343 68.9276L212.526 91.9448L211.391 92.4319C211.021 92.5839 210.624 92.6638 210.224 92.6671C209.677 92.6629 209.141 92.512 208.672 92.2303L206.471 90.8861L153.954 58.7466L148.482 55.4036L85.9555 17.1317L85.0045 16.5604C84.4008 16.2016 83.9497 15.6338 83.7369 14.9644L82.6025 11.6041L66.12 -37.017C66.0081 -37.3296 65.9517 -37.6594 65.9532 -37.9915H72.0589L88.5414 10.6462L89.0083 12.0073L94.9974 15.6697L155.372 52.6142L208.489 85.1067L210.459 86.3161L214.696 84.5007L263.61 63.5662L269.314 61.134C270.043 60.8282 270.864 60.8245 271.596 61.1238C272.328 61.4231 272.912 62.0008 273.218 62.73C273.522 63.4621 273.527 64.2847 273.23 65.02C272.933 65.7553 272.359 66.3444 271.632 66.66Z" fill="#D0D9E1"/>
<path d="M204.137 167.542C203.538 165.632 202.746 163.788 201.775 162.037C199.423 157.707 196.013 154.043 191.862 151.387C187.712 148.731 182.956 147.169 178.039 146.848H178.009C177.419 146.823 176.829 146.798 176.209 146.798C175.736 146.79 175.263 146.806 174.792 146.848C173.842 146.877 172.895 146.969 171.957 147.124H171.928C166.348 147.974 161.132 150.417 156.906 154.159C152.68 157.901 149.624 162.782 148.103 168.218V168.243C147.363 170.839 146.995 173.526 147.01 176.226C147 178.191 147.188 180.153 147.571 182.081C150.287 195.494 162.094 205.653 176.208 205.653C177.91 205.656 179.61 205.505 181.286 205.202C182.242 205.04 183.188 204.822 184.119 204.551C185.107 204.288 186.074 203.954 187.013 203.551H187.042C192.476 201.339 197.128 197.559 200.404 192.692C203.68 187.825 205.431 182.092 205.435 176.226C205.444 173.282 205.006 170.354 204.137 167.542ZM185.095 197.896H185.066C184.127 198.292 183.16 198.618 182.173 198.871H182.143C181.213 199.126 180.266 199.318 179.309 199.447C178.283 199.598 177.247 199.673 176.209 199.672C163.367 199.672 152.945 189.163 152.945 176.227C152.931 170.859 154.762 165.65 158.132 161.472C161.503 157.294 166.207 154.402 171.456 153.28H171.485C172.42 153.084 173.367 152.95 174.319 152.88C174.94 152.83 175.56 152.805 176.209 152.805C176.652 152.805 177.065 152.805 177.478 152.83H177.508C181.35 153.055 185.075 154.229 188.352 156.246C191.629 158.264 194.355 161.062 196.285 164.391C197.304 166.114 198.088 167.965 198.617 169.896V169.921C200.145 175.431 199.615 181.309 197.127 186.457C194.639 191.605 190.362 195.671 185.095 197.897V197.896Z" fill="#D0D9E1"/>
<path d="M283.615 201.834C283.042 201.833 282.482 201.667 282.001 201.355C281.52 201.043 281.14 200.599 280.905 200.076L255.013 142.62C254.686 141.898 254.658 141.075 254.935 140.332C255.212 139.589 255.771 138.985 256.491 138.653C256.848 138.491 257.232 138.401 257.624 138.388C258.015 138.375 258.405 138.44 258.771 138.578C259.137 138.717 259.472 138.926 259.757 139.195C260.042 139.463 260.271 139.785 260.431 140.143L286.324 197.599C286.65 198.322 286.678 199.144 286.401 199.887C286.124 200.631 285.564 201.234 284.844 201.566C284.459 201.743 284.039 201.834 283.615 201.834Z" fill="#D0D9E1"/>
<path d="M166.132 4.09465L163.779 4.4809L94.997 15.6701L85.9717 17.1316H85.9551L48.5862 23.2135L42.08 24.2718L10.9184 29.3459L4.99614 30.3038L-2.81135 31.5807C-2.9663 31.6002 -3.12218 31.6114 -3.27832 31.6143V25.5657L6.81457 23.9365L82.6037 11.6049L88.5426 10.6469L161.462 -1.2143L165.182 -1.81875C165.964 -1.93932 166.762 -1.74573 167.401 -1.28026C168.041 -0.814788 168.47 -0.115224 168.596 0.665727C168.721 1.44668 168.533 2.24561 168.071 2.8881C167.61 3.5306 166.913 3.96449 166.133 4.09508L166.132 4.09465Z" fill="#D0D9E1"/>
<path d="M41.8756 323.612C40.608 323.608 39.3746 323.201 38.3548 322.448C37.3349 321.695 36.5819 320.637 36.2052 319.426C35.9916 318.747 15.5555 251.12 78.9347 225.066C142.308 199.021 170.678 253.533 170.958 254.087C171.673 255.502 171.8 257.143 171.311 258.652C170.822 260.16 169.757 261.415 168.347 262.141C167.65 262.497 166.889 262.711 166.109 262.772C165.328 262.832 164.543 262.737 163.8 262.493C163.056 262.248 162.368 261.859 161.776 261.347C161.184 260.835 160.699 260.211 160.349 259.511C159.407 257.673 136.505 214.345 83.4313 236.161C61.0718 245.352 48.2397 261.447 45.2911 283.996C43.0428 301.196 47.5035 315.665 47.5491 315.809C48.0278 317.321 47.8887 318.96 47.1621 320.37C46.4355 321.779 45.1806 322.843 43.6716 323.33C43.0912 323.516 42.4853 323.612 41.8756 323.612Z" fill="#D0D9E1"/>
<path d="M86.5527 231.576C86.1116 231.577 85.6761 231.478 85.2778 231.289C84.8795 231.099 84.5286 230.823 84.2507 230.48C83.7508 229.865 83.514 229.076 83.5917 228.287C83.6693 227.497 84.0552 226.77 84.6656 226.264L145.962 175.659L41.0152 22.7144C40.5664 22.0604 40.394 21.2555 40.5357 20.475C40.6773 19.6945 41.1214 19.0015 41.7715 18.5469C42.0925 18.3233 42.4547 18.1656 42.8371 18.0829C43.2194 18.0001 43.6144 17.994 43.9991 18.0648C44.3839 18.1355 44.7508 18.2819 45.0786 18.4953C45.4065 18.7087 45.6888 18.985 45.9093 19.3081L152.414 174.523C152.839 175.142 153.017 175.898 152.913 176.642C152.809 177.386 152.431 178.064 151.853 178.543L88.4372 230.897C87.9073 231.336 87.2408 231.576 86.5527 231.576Z" fill="#D0D9E1"/>
<path d="M96.7171 101.615C96.2562 101.616 95.8016 101.508 95.3894 101.302C94.9772 101.096 94.6187 100.796 94.3425 100.427C93.8663 99.7928 93.6598 98.996 93.7678 98.2101C93.8759 97.4242 94.2898 96.7127 94.9195 96.2303L151.974 52.744C152.285 52.507 152.64 52.3338 153.018 52.2346C153.397 52.1354 153.791 52.1121 154.178 52.1659C154.566 52.2198 154.939 52.3498 155.276 52.5485C155.613 52.7471 155.907 53.0105 156.142 53.3234C156.617 53.958 156.823 54.7546 156.715 55.5403C156.608 56.326 156.194 57.0375 155.565 57.5203L98.51 101.008C97.9952 101.402 97.3652 101.615 96.7171 101.615Z" fill="#D0D9E1"/>
<path d="M40.8785 59.9613C34.1914 59.9613 28.202 58.4604 22.9495 55.4577C7.48244 46.6177 4.45932 28.1389 4.33882 27.3563C4.27795 26.9704 4.29369 26.5763 4.38514 26.1964C4.47659 25.8166 4.64196 25.4585 4.87181 25.1425C5.10166 24.8266 5.39148 24.5591 5.72473 24.3551C6.05798 24.1512 6.42812 24.0149 6.81404 23.954C7.19996 23.8932 7.59409 23.9089 7.97392 24.0004C8.35375 24.0918 8.71186 24.2572 9.02779 24.4871C9.34371 24.7169 9.61128 25.0067 9.81519 25.34C10.0191 25.6732 10.1554 26.0434 10.2163 26.4293C10.2464 26.6147 12.9744 42.9 25.9293 50.2715C35.337 55.6249 47.937 55.1575 63.3778 48.881C63.7405 48.7335 64.1288 48.6593 64.5204 48.6628C64.9119 48.6663 65.2989 48.7474 65.6589 48.9013C66.0189 49.0552 66.3449 49.279 66.6179 49.5597C66.8909 49.8404 67.1056 50.1723 67.2495 50.5365C67.5461 51.2721 67.5397 52.0952 67.2315 52.8261C66.9234 53.557 66.3386 54.1363 65.6049 54.4376C56.5487 58.1189 48.2862 59.9613 40.8785 59.9613Z" fill="#D0D9E1"/>
<path d="M78.2147 73.5813L76.2449 74.0518L47.9013 80.7049L42.0791 82.0826L27.1983 85.5774L21.3595 86.9381L-2.61334 92.5831C-2.83043 92.644 -3.05536 92.6722 -3.28076 92.6669V86.5851L22.6774 80.4866C22.7438 80.4696 22.7933 80.4697 22.8442 80.4531L72.6084 68.7598L76.8625 67.7517C77.4597 67.6097 78.0864 67.658 78.6548 67.89C79.2231 68.1219 79.7047 68.5259 80.032 69.0453C80.216 69.3349 80.3513 69.6528 80.4325 69.9862C80.6138 70.7569 80.4822 71.5681 80.0665 72.242C79.6508 72.9159 78.9849 73.3975 78.2147 73.5813Z" fill="#D0D9E1"/>
<path d="M100.191 156.237C94.2475 156.237 89.465 148.527 84.8189 141.032C80.8673 134.663 75.9458 126.747 72.3754 127.692C59.3135 131.182 45.6475 92.9193 41.7708 81.1106C41.642 80.7384 41.5884 80.3444 41.613 79.9513C41.6376 79.5582 41.74 79.1739 41.9142 78.8207C42.0884 78.4675 42.331 78.1523 42.6279 77.8935C42.9248 77.6347 43.2701 77.4374 43.6438 77.313C44.0174 77.1886 44.4121 77.1396 44.8049 77.1689C45.1976 77.1981 45.5807 77.305 45.9318 77.4833C46.283 77.6616 46.5953 77.9079 46.8506 78.2078C47.1059 78.5077 47.2991 78.8553 47.4191 79.2304C55.2873 103.196 66.2434 123.108 70.8505 121.901C78.6738 119.816 84.3612 128.987 89.8644 137.858C93.3835 143.532 98.2072 151.312 100.95 150.039C110.922 145.452 123.571 137.713 123.699 137.634C124.033 137.43 124.404 137.294 124.79 137.235C125.177 137.175 125.571 137.192 125.951 137.285C126.331 137.378 126.688 137.545 127.003 137.776C127.318 138.008 127.584 138.3 127.786 138.635C128.197 139.313 128.323 140.126 128.137 140.897C127.951 141.668 127.469 142.334 126.794 142.751C126.264 143.076 113.721 150.751 103.423 155.489C102.413 155.971 101.31 156.226 100.191 156.237Z" fill="#D0D9E1"/>
<path d="M42.3806 274.6L34.74 275.927L-2.77914 282.429C-2.94438 282.463 -3.1126 282.48 -3.28125 282.48V276.448L36.39 269.56L41.378 268.686C42.1605 268.557 42.9624 268.744 43.608 269.204C44.2536 269.665 44.6905 270.363 44.8229 271.145C44.9553 271.927 44.7724 272.729 44.3144 273.377C43.8564 274.025 43.1606 274.464 42.3791 274.6H42.3806Z" fill="#D0D9E1"/>
<path d="M51.6226 257.245C51.1206 257.603 50.5204 257.797 49.9042 257.8C49.4252 257.801 48.9531 257.686 48.5287 257.464C48.1044 257.241 47.7405 256.919 47.4685 256.525L44.4489 252.241L14.1034 208.996C13.9887 208.867 13.8881 208.727 13.8033 208.576L-3.27979 184.249V176.05C-2.80364 176.053 -2.33518 176.171 -1.91409 176.393C-1.493 176.615 -1.13169 176.936 -0.860752 177.327L15.271 200.293L19.5753 206.426L48.1692 247.15L52.3236 253.079C52.7795 253.726 52.9616 254.526 52.8303 255.306C52.699 256.087 52.265 256.784 51.6226 257.245Z" fill="#D0D9E1"/>
<path d="M74.7753 236.556C74.1547 236.555 73.5499 236.36 73.0456 235.998C72.5414 235.636 72.163 235.125 71.9635 234.538L20.4945 84.3956C20.2361 83.6463 20.2847 82.8251 20.6296 82.1114C20.9744 81.3976 21.5876 80.8493 22.3353 80.5861C22.7054 80.458 23.0971 80.4044 23.4879 80.4284C23.8787 80.4524 24.261 80.5535 24.6126 80.7258C24.9642 80.8981 25.2782 81.1383 25.5366 81.4325C25.795 81.7267 25.9927 82.0691 26.1182 82.44L77.5876 232.582C77.8458 233.332 77.7972 234.153 77.4522 234.866C77.1073 235.58 76.4941 236.128 75.7464 236.392C75.4341 236.5 75.1059 236.556 74.7753 236.556Z" fill="#D0D9E1"/>
<path d="M16.3834 210.053C16.2242 210.053 16.0654 210.04 15.9083 210.014C15.1284 209.886 14.431 209.454 13.9687 208.813C13.5065 208.172 13.317 207.373 13.4418 206.593C13.5329 206.014 15.8067 192.293 27.4902 184.585C35.6186 179.22 46.1032 178.165 58.6525 181.448C59.4148 181.652 60.0656 182.149 60.4634 182.831C60.8611 183.513 60.9737 184.324 60.7766 185.088C60.5795 185.852 60.0887 186.508 59.4108 186.912C58.733 187.316 57.923 187.436 57.157 187.246C46.3287 184.418 37.4587 185.194 30.8006 189.564C21.3238 195.78 19.3362 207.421 19.3173 207.538C19.2052 208.236 18.8489 208.873 18.3116 209.333C17.7743 209.794 17.091 210.049 16.3834 210.053Z" fill="#D0D9E1"/>
<path d="M41.4795 137.087L38.7935 137.81L-2.51232 148.915C-2.76272 148.982 -3.0207 149.015 -3.27979 149.016V142.934L36.8585 132.132L39.9445 131.291C40.6242 131.113 41.345 131.181 41.9798 131.482C42.6147 131.783 43.1228 132.299 43.4145 132.938C43.4803 133.097 43.5362 133.259 43.5818 133.425C43.6847 133.804 43.7119 134.199 43.6619 134.588C43.6119 134.977 43.4856 135.352 43.2904 135.692C43.0951 136.033 42.8346 136.331 42.5239 136.57C42.2131 136.81 41.8582 136.985 41.4795 137.087Z" fill="#D0D9E1"/>
<rect x="120" y="126" width="111" height="26.8834" rx="3" fill="#32343E"/>
<path d="M175.359 158.445C175.171 158.801 174.661 158.801 174.474 158.445L171.255 152.336C171.079 152.003 171.321 151.603 171.697 151.603L178.135 151.603C178.511 151.603 178.753 152.003 178.577 152.336L175.359 158.445Z" fill="#32343E"/>
<path d="M136.53 136.772V143H135.711V138.356L133.641 143H133.065L130.986 138.347V143H130.167V136.772H131.049L133.353 141.92L135.657 136.772H136.53ZM140.07 143.081C139.608 143.081 139.188 142.976 138.81 142.766C138.438 142.556 138.144 142.259 137.928 141.875C137.718 141.485 137.613 141.035 137.613 140.525C137.613 140.021 137.721 139.577 137.937 139.193C138.159 138.803 138.459 138.506 138.837 138.302C139.215 138.092 139.638 137.987 140.106 137.987C140.574 137.987 140.997 138.092 141.375 138.302C141.753 138.506 142.05 138.8 142.266 139.184C142.488 139.568 142.599 140.015 142.599 140.525C142.599 141.035 142.485 141.485 142.257 141.875C142.035 142.259 141.732 142.556 141.348 142.766C140.964 142.976 140.538 143.081 140.07 143.081ZM140.07 142.361C140.364 142.361 140.64 142.292 140.898 142.154C141.156 142.016 141.363 141.809 141.519 141.533C141.681 141.257 141.762 140.921 141.762 140.525C141.762 140.129 141.684 139.793 141.528 139.517C141.372 139.241 141.168 139.037 140.916 138.905C140.664 138.767 140.391 138.698 140.097 138.698C139.797 138.698 139.521 138.767 139.269 138.905C139.023 139.037 138.825 139.241 138.675 139.517C138.525 139.793 138.45 140.129 138.45 140.525C138.45 140.927 138.522 141.266 138.666 141.542C138.816 141.818 139.014 142.025 139.26 142.163C139.506 142.295 139.776 142.361 140.07 142.361ZM145.512 142.244L147.042 138.068H147.915L145.98 143H145.026L143.091 138.068H143.973L145.512 142.244ZM153.221 140.345C153.221 140.501 153.212 140.666 153.194 140.84H149.252C149.282 141.326 149.447 141.707 149.747 141.983C150.053 142.253 150.422 142.388 150.854 142.388C151.208 142.388 151.502 142.307 151.736 142.145C151.976 141.977 152.144 141.755 152.24 141.479H153.122C152.99 141.953 152.726 142.34 152.33 142.64C151.934 142.934 151.442 143.081 150.854 143.081C150.386 143.081 149.966 142.976 149.594 142.766C149.228 142.556 148.94 142.259 148.73 141.875C148.52 141.485 148.415 141.035 148.415 140.525C148.415 140.015 148.517 139.568 148.721 139.184C148.925 138.8 149.21 138.506 149.576 138.302C149.948 138.092 150.374 137.987 150.854 137.987C151.322 137.987 151.736 138.089 152.096 138.293C152.456 138.497 152.732 138.779 152.924 139.139C153.122 139.493 153.221 139.895 153.221 140.345ZM152.375 140.174C152.375 139.862 152.306 139.595 152.168 139.373C152.03 139.145 151.841 138.974 151.601 138.86C151.367 138.74 151.106 138.68 150.818 138.68C150.404 138.68 150.05 138.812 149.756 139.076C149.468 139.34 149.303 139.706 149.261 140.174H152.375ZM157.7 138.743V141.65C157.7 141.89 157.751 142.061 157.853 142.163C157.955 142.259 158.132 142.307 158.384 142.307H158.987V143H158.249C157.793 143 157.451 142.895 157.223 142.685C156.995 142.475 156.881 142.13 156.881 141.65V138.743H156.242V138.068H156.881V136.826H157.7V138.068H158.987V138.743H157.7ZM162.131 143.081C161.669 143.081 161.249 142.976 160.871 142.766C160.499 142.556 160.205 142.259 159.989 141.875C159.779 141.485 159.674 141.035 159.674 140.525C159.674 140.021 159.782 139.577 159.998 139.193C160.22 138.803 160.52 138.506 160.898 138.302C161.276 138.092 161.699 137.987 162.167 137.987C162.635 137.987 163.058 138.092 163.436 138.302C163.814 138.506 164.111 138.8 164.327 139.184C164.549 139.568 164.66 140.015 164.66 140.525C164.66 141.035 164.546 141.485 164.318 141.875C164.096 142.259 163.793 142.556 163.409 142.766C163.025 142.976 162.599 143.081 162.131 143.081ZM162.131 142.361C162.425 142.361 162.701 142.292 162.959 142.154C163.217 142.016 163.424 141.809 163.58 141.533C163.742 141.257 163.823 140.921 163.823 140.525C163.823 140.129 163.745 139.793 163.589 139.517C163.433 139.241 163.229 139.037 162.977 138.905C162.725 138.767 162.452 138.698 162.158 138.698C161.858 138.698 161.582 138.767 161.33 138.905C161.084 139.037 160.886 139.241 160.736 139.517C160.586 139.793 160.511 140.129 160.511 140.525C160.511 140.927 160.583 141.266 160.727 141.542C160.877 141.818 161.075 142.025 161.321 142.163C161.567 142.295 161.837 142.361 162.131 142.361ZM172.636 140.345C172.636 140.501 172.627 140.666 172.609 140.84H168.667C168.697 141.326 168.862 141.707 169.162 141.983C169.468 142.253 169.837 142.388 170.269 142.388C170.623 142.388 170.917 142.307 171.151 142.145C171.391 141.977 171.559 141.755 171.655 141.479H172.537C172.405 141.953 172.141 142.34 171.745 142.64C171.349 142.934 170.857 143.081 170.269 143.081C169.801 143.081 169.381 142.976 169.009 142.766C168.643 142.556 168.355 142.259 168.145 141.875C167.935 141.485 167.83 141.035 167.83 140.525C167.83 140.015 167.932 139.568 168.136 139.184C168.34 138.8 168.625 138.506 168.991 138.302C169.363 138.092 169.789 137.987 170.269 137.987C170.737 137.987 171.151 138.089 171.511 138.293C171.871 138.497 172.147 138.779 172.339 139.139C172.537 139.493 172.636 139.895 172.636 140.345ZM171.79 140.174C171.79 139.862 171.721 139.595 171.583 139.373C171.445 139.145 171.256 138.974 171.016 138.86C170.782 138.74 170.521 138.68 170.233 138.68C169.819 138.68 169.465 138.812 169.171 139.076C168.883 139.34 168.718 139.706 168.676 140.174H171.79ZM173.411 140.516C173.411 140.012 173.513 139.571 173.717 139.193C173.921 138.809 174.2 138.512 174.554 138.302C174.914 138.092 175.316 137.987 175.76 137.987C176.144 137.987 176.501 138.077 176.831 138.257C177.161 138.431 177.413 138.662 177.587 138.95V136.34H178.415V143H177.587V142.073C177.425 142.367 177.185 142.61 176.867 142.802C176.549 142.988 176.177 143.081 175.751 143.081C175.313 143.081 174.914 142.973 174.554 142.757C174.2 142.541 173.921 142.238 173.717 141.848C173.513 141.458 173.411 141.014 173.411 140.516ZM177.587 140.525C177.587 140.153 177.512 139.829 177.362 139.553C177.212 139.277 177.008 139.067 176.75 138.923C176.498 138.773 176.219 138.698 175.913 138.698C175.607 138.698 175.328 138.77 175.076 138.914C174.824 139.058 174.623 139.268 174.473 139.544C174.323 139.82 174.248 140.144 174.248 140.516C174.248 140.894 174.323 141.224 174.473 141.506C174.623 141.782 174.824 141.995 175.076 142.145C175.328 142.289 175.607 142.361 175.913 142.361C176.219 142.361 176.498 142.289 176.75 142.145C177.008 141.995 177.212 141.782 177.362 141.506C177.512 141.224 177.587 140.897 177.587 140.525ZM180.222 137.267C180.066 137.267 179.934 137.213 179.826 137.105C179.718 136.997 179.664 136.865 179.664 136.709C179.664 136.553 179.718 136.421 179.826 136.313C179.934 136.205 180.066 136.151 180.222 136.151C180.372 136.151 180.498 136.205 180.6 136.313C180.708 136.421 180.762 136.553 180.762 136.709C180.762 136.865 180.708 136.997 180.6 137.105C180.498 137.213 180.372 137.267 180.222 137.267ZM180.618 138.068V143H179.799V138.068H180.618ZM183.013 138.743V141.65C183.013 141.89 183.064 142.061 183.166 142.163C183.268 142.259 183.445 142.307 183.697 142.307H184.3V143H183.562C183.106 143 182.764 142.895 182.536 142.685C182.308 142.475 182.194 142.13 182.194 141.65V138.743H181.555V138.068H182.194V136.826H183.013V138.068H184.3V138.743H183.013ZM188.511 136.34V143H187.692V136.34H188.511ZM192.057 143.081C191.595 143.081 191.175 142.976 190.797 142.766C190.425 142.556 190.131 142.259 189.915 141.875C189.705 141.485 189.6 141.035 189.6 140.525C189.6 140.021 189.708 139.577 189.924 139.193C190.146 138.803 190.446 138.506 190.824 138.302C191.202 138.092 191.625 137.987 192.093 137.987C192.561 137.987 192.984 138.092 193.362 138.302C193.74 138.506 194.037 138.8 194.253 139.184C194.475 139.568 194.586 140.015 194.586 140.525C194.586 141.035 194.472 141.485 194.244 141.875C194.022 142.259 193.719 142.556 193.335 142.766C192.951 142.976 192.525 143.081 192.057 143.081ZM192.057 142.361C192.351 142.361 192.627 142.292 192.885 142.154C193.143 142.016 193.35 141.809 193.506 141.533C193.668 141.257 193.749 140.921 193.749 140.525C193.749 140.129 193.671 139.793 193.515 139.517C193.359 139.241 193.155 139.037 192.903 138.905C192.651 138.767 192.378 138.698 192.084 138.698C191.784 138.698 191.508 138.767 191.256 138.905C191.01 139.037 190.812 139.241 190.662 139.517C190.512 139.793 190.437 140.129 190.437 140.525C190.437 140.927 190.509 141.266 190.653 141.542C190.803 141.818 191.001 142.025 191.247 142.163C191.493 142.295 191.763 142.361 192.057 142.361ZM195.357 140.525C195.357 140.015 195.459 139.571 195.663 139.193C195.867 138.809 196.149 138.512 196.509 138.302C196.875 138.092 197.292 137.987 197.76 137.987C198.366 137.987 198.864 138.134 199.254 138.428C199.65 138.722 199.911 139.13 200.037 139.652H199.155C199.071 139.352 198.906 139.115 198.66 138.941C198.42 138.767 198.12 138.68 197.76 138.68C197.292 138.68 196.914 138.842 196.626 139.166C196.338 139.484 196.194 139.937 196.194 140.525C196.194 141.119 196.338 141.578 196.626 141.902C196.914 142.226 197.292 142.388 197.76 142.388C198.12 142.388 198.42 142.304 198.66 142.136C198.9 141.968 199.065 141.728 199.155 141.416H200.037C199.905 141.92 199.641 142.325 199.245 142.631C198.849 142.931 198.354 143.081 197.76 143.081C197.292 143.081 196.875 142.976 196.509 142.766C196.149 142.556 195.867 142.259 195.663 141.875C195.459 141.491 195.357 141.041 195.357 140.525ZM200.824 140.516C200.824 140.012 200.926 139.571 201.13 139.193C201.334 138.809 201.613 138.512 201.967 138.302C202.327 138.092 202.726 137.987 203.164 137.987C203.596 137.987 203.971 138.08 204.289 138.266C204.607 138.452 204.844 138.686 205 138.968V138.068H205.828V143H205V142.082C204.838 142.37 204.595 142.61 204.271 142.802C203.953 142.988 203.581 143.081 203.155 143.081C202.717 143.081 202.321 142.973 201.967 142.757C201.613 142.541 201.334 142.238 201.13 141.848C200.926 141.458 200.824 141.014 200.824 140.516ZM205 140.525C205 140.153 204.925 139.829 204.775 139.553C204.625 139.277 204.421 139.067 204.163 138.923C203.911 138.773 203.632 138.698 203.326 138.698C203.02 138.698 202.741 138.77 202.489 138.914C202.237 139.058 202.036 139.268 201.886 139.544C201.736 139.82 201.661 140.144 201.661 140.516C201.661 140.894 201.736 141.224 201.886 141.506C202.036 141.782 202.237 141.995 202.489 142.145C202.741 142.289 203.02 142.361 203.326 142.361C203.632 142.361 203.911 142.289 204.163 142.145C204.421 141.995 204.625 141.782 204.775 141.506C204.925 141.224 205 140.897 205 140.525ZM208.211 138.743V141.65C208.211 141.89 208.262 142.061 208.364 142.163C208.466 142.259 208.643 142.307 208.895 142.307H209.498V143H208.76C208.304 143 207.962 142.895 207.734 142.685C207.506 142.475 207.392 142.13 207.392 141.65V138.743H206.753V138.068H207.392V136.826H208.211V138.068H209.498V138.743H208.211ZM210.913 137.267C210.757 137.267 210.625 137.213 210.517 137.105C210.409 136.997 210.355 136.865 210.355 136.709C210.355 136.553 210.409 136.421 210.517 136.313C210.625 136.205 210.757 136.151 210.913 136.151C211.063 136.151 211.189 136.205 211.291 136.313C211.399 136.421 211.453 136.553 211.453 136.709C211.453 136.865 211.399 136.997 211.291 137.105C211.189 137.213 211.063 137.267 210.913 137.267ZM211.309 138.068V143H210.49V138.068H211.309ZM214.856 143.081C214.394 143.081 213.974 142.976 213.596 142.766C213.224 142.556 212.93 142.259 212.714 141.875C212.504 141.485 212.399 141.035 212.399 140.525C212.399 140.021 212.507 139.577 212.723 139.193C212.945 138.803 213.245 138.506 213.623 138.302C214.001 138.092 214.424 137.987 214.892 137.987C215.36 137.987 215.783 138.092 216.161 138.302C216.539 138.506 216.836 138.8 217.052 139.184C217.274 139.568 217.385 140.015 217.385 140.525C217.385 141.035 217.271 141.485 217.043 141.875C216.821 142.259 216.518 142.556 216.134 142.766C215.75 142.976 215.324 143.081 214.856 143.081ZM214.856 142.361C215.15 142.361 215.426 142.292 215.684 142.154C215.942 142.016 216.149 141.809 216.305 141.533C216.467 141.257 216.548 140.921 216.548 140.525C216.548 140.129 216.47 139.793 216.314 139.517C216.158 139.241 215.954 139.037 215.702 138.905C215.45 138.767 215.177 138.698 214.883 138.698C214.583 138.698 214.307 138.767 214.055 138.905C213.809 139.037 213.611 139.241 213.461 139.517C213.311 139.793 213.236 140.129 213.236 140.525C213.236 140.927 213.308 141.266 213.452 141.542C213.602 141.818 213.8 142.025 214.046 142.163C214.292 142.295 214.562 142.361 214.856 142.361ZM220.865 137.978C221.465 137.978 221.951 138.161 222.323 138.527C222.695 138.887 222.881 139.409 222.881 140.093V143H222.071V140.21C222.071 139.718 221.948 139.343 221.702 139.085C221.456 138.821 221.12 138.689 220.694 138.689C220.262 138.689 219.917 138.824 219.659 139.094C219.407 139.364 219.281 139.757 219.281 140.273V143H218.462V138.068H219.281V138.77C219.443 138.518 219.662 138.323 219.938 138.185C220.22 138.047 220.529 137.978 220.865 137.978Z" fill="white"/>
<circle cx="176" cy="172" r="15" fill="#F7916D" fill-opacity="0.2"/>
<circle cx="176" cy="172" r="10" fill="#FB6D3A"/>
</g>
</svg>
